<svg width="15" height="15" viewBox="0 0 15 15" fill="none" xmlns="http://www.w3.org/2000/svg">
<path d="M1.03235 4.12939H11.3558C11.9236 4.12939 12.3882 4.59394 12.3882 5.16173C12.3882 5.72953 11.9236 6.19408 11.3558 6.19408H1.03235C0.464556 6.19408 0 5.72953 0 5.16173C0 4.59394 0.464556 4.12939 1.03235 4.12939ZM1.03235 0H11.3558C11.9236 0 12.3882 0.464556 12.3882 1.03235C12.3882 1.60014 11.9236 2.06469 11.3558 2.06469H1.03235C0.464556 2.06469 0 1.60014 0 1.03235C0 0.464556 0.464556 0 1.03235 0ZM1.03235 8.25877H7.22643C7.79422 8.25877 8.25877 8.72333 8.25877 9.29112C8.25877 9.85891 7.79422 10.3235 7.22643 10.3235H1.03235C0.464556 10.3235 0 9.85891 0 9.29112C0 8.72333 0.464556 8.25877 1.03235 8.25877ZM10.3235 9.16724V13.5341C10.3235 13.9367 10.7571 14.1844 11.1081 13.978L14.7522 11.7894C15.0826 11.5933 15.0826 11.1081 14.7522 10.9016L11.1081 8.71301C10.7571 8.51686 10.3235 8.76462 10.3235 9.16724Z" fill="black"/>
</svg>
