<svg width="25" height="29" viewBox="0 0 25 29" fill="none" xmlns="http://www.w3.org/2000/svg">
<path d="M2.40414 5.8H0V26.1C0 27.695 1.08187 29 2.40414 29H19.2332V26.1H2.40414V5.8ZM21.6373 0H7.21243C5.89015 0 4.80829 1.305 4.80829 2.9V20.3C4.80829 21.895 5.89015 23.2 7.21243 23.2H21.6373C22.9596 23.2 24.0414 21.895 24.0414 20.3V2.9C24.0414 1.305 22.9596 0 21.6373 0ZM20.4352 13.05H8.41451V10.15H20.4352V13.05ZM15.6269 18.85H8.41451V15.95H15.6269V18.85ZM20.4352 7.25H8.41451V4.35H20.4352V7.25Z" fill="black"/>
</svg>
