<svg width="32" height="28" viewBox="0 0 32 28" fill="none" xmlns="http://www.w3.org/2000/svg">
<path d="M15.0021 3.04126C20.8427 3.04126 25.5798 7.86241 25.5798 13.8068C25.5798 19.7511 20.8427 24.5723 15.0021 24.5723C9.16146 24.5723 4.42444 19.7468 4.42444 13.8024C4.42444 13.6901 4.42444 13.5821 4.42868 13.4741" stroke="#FCFCFC" stroke-width="2" stroke-miterlimit="10"/>
<path d="M9.82788 3.0413L15.0021 6.07828V0L9.82788 3.0413Z" fill="#FCFCFC"/>
<path d="M12.6707 11.4279H12.6622L12.0849 11.7432L12 11.3976L12.7216 11.0045H13.1036V14.3741H12.6707V11.4322V11.4279Z" fill="#FCFCFC"/>
<path d="M16.2828 11.3888H15.0221L14.8948 12.2528C14.9712 12.2442 15.0434 12.2312 15.1664 12.2312C15.4211 12.2312 15.6758 12.2874 15.8795 12.4126C16.1385 12.5639 16.3549 12.8533 16.3549 13.2767C16.3549 13.9333 15.8413 14.4258 15.124 14.4258C14.7632 14.4258 14.4576 14.3221 14.3005 14.2184L14.4109 13.8728C14.5467 13.9549 14.8184 14.0586 15.1198 14.0586C15.5442 14.0586 15.905 13.7778 15.905 13.3285C15.9008 12.8922 15.6164 12.5811 14.9542 12.5811C14.7674 12.5811 14.6189 12.6027 14.4958 12.6157L14.708 11H16.2913V11.3845L16.2828 11.3888Z" fill="#FCFCFC"/>
<path d="M17.0045 13.9073C17.1361 13.9937 17.3695 14.0888 17.5945 14.0888C17.9213 14.0888 18.0741 13.9246 18.0741 13.7173C18.0741 13.5013 17.9468 13.3803 17.6157 13.255C17.1743 13.0952 16.9621 12.8446 16.9621 12.5465C16.9621 12.1405 17.2846 11.8121 17.811 11.8121C18.0614 11.8121 18.2779 11.8856 18.418 11.9677L18.3076 12.3003C18.21 12.2398 18.0317 12.1534 17.8025 12.1534C17.5393 12.1534 17.3908 12.3089 17.3908 12.4947C17.3908 12.7021 17.5393 12.7971 17.8577 12.9181C18.2864 13.0822 18.5029 13.3025 18.5029 13.6741C18.5029 14.1147 18.1675 14.4258 17.5818 14.4258C17.3101 14.4258 17.0639 14.3566 16.8899 14.2529L17.0003 13.9073H17.0045Z" fill="#FCFCFC"/>
</svg>
