<svg width="15" height="10" viewBox="0 0 15 10" fill="none" xmlns="http://www.w3.org/2000/svg">
<g clip-path="url(#clip0_304_45)">
<path d="M8.28683 0.502467V9.50032C8.28683 9.92482 7.77065 10.1559 7.43304 9.88452L4.24107 7.32138H0.856585C0.382254 7.32138 0 6.9533 0 6.49656V3.50623C0 3.04948 0.382254 2.6814 0.856585 2.6814H4.24107L7.43304 0.118265C7.77065 -0.153094 8.28683 0.0779643 8.28683 0.502467Z" fill="#fcfcfc"/>
<path d="M9.94981 6.99633C9.81867 6.99633 9.69032 6.93722 9.6094 6.82707C9.47547 6.64706 9.51733 6.3945 9.70706 6.26554C9.70706 6.26554 10.0419 5.97269 10.0419 5.08338C10.0419 4.19407 9.69869 3.89585 9.6959 3.89047C9.50896 3.76151 9.46989 3.51433 9.60382 3.33163C9.73775 3.15162 10.0056 3.11401 10.1953 3.24297C10.2651 3.29133 10.8789 3.75345 10.8789 5.08069C10.8789 6.40794 10.2651 6.87006 10.1953 6.91842C10.1228 6.96946 10.0363 6.99365 9.95259 6.99365L9.94981 6.99633Z" fill="#fcfcfc"/>
<path d="M11.4565 8.1489C11.3254 8.1489 11.197 8.08979 11.1161 7.97963C10.9822 7.79962 11.024 7.54707 11.2138 7.41811C11.2138 7.41811 11.9364 6.85389 11.9364 5.08065C11.9364 3.30741 11.2138 2.7432 11.2054 2.73783C11.0268 2.60349 10.9878 2.35094 11.1245 2.1763C11.2612 2.00166 11.5151 1.95868 11.6993 2.08764C11.8081 2.16287 12.7707 2.89097 12.7707 5.08065C12.7707 7.27034 11.8081 7.99844 11.6965 8.07367C11.6239 8.12471 11.5374 8.1489 11.4537 8.1489H11.4565Z" fill="#fcfcfc"/>
<path d="M13.192 9.60509C13.0608 9.60509 12.9325 9.54598 12.8516 9.43583C12.7177 9.25581 12.7595 9.00326 12.9492 8.8743C12.9576 8.86893 14.163 7.95813 14.163 5.08333C14.163 2.20853 12.9576 1.29773 12.9465 1.28698C12.7623 1.15265 12.7232 0.902779 12.86 0.725455C12.9967 0.548131 13.2506 0.505144 13.4375 0.634107C13.5017 0.677094 15 1.7491 15 5.08333C15 8.41756 13.4989 9.48687 13.4375 9.53255C13.365 9.5836 13.2785 9.60778 13.1948 9.60778L13.192 9.60509Z" fill="#fcfcfc"/>
</g>
<defs>
<clipPath id="clip0_304_45">
<rect width="15" height="10" fill="white"/>
</clipPath>
</defs>
</svg>
